<svg xmlns="http://www.w3.org/2000/svg" style="display:none"><symbol id="icon-alley-bowling-blitz" viewBox="0 0 24 24"><circle cx="8" cy="13" r="4" stroke="currentColor" stroke-width="1.8"/><path d="M7 11.5h.1M9 12.8h.1M8.2 14.4h.1" stroke="currentColor" stroke-width="1.8" stroke-linecap="round"/><path d="M16 6v8m3-8v8m-6-8v8" stroke="currentColor" stroke-width="1.8" stroke-linecap="round"/></symbol><symbol id="icon-back" viewBox="0 0 24 24"><path d="M14.5 5 7.5 12l7 7" stroke="currentColor" stroke-width="1.8" stroke-linecap="round" stroke-linejoin="round"/></symbol><symbol id="icon-card-table" viewBox="0 0 24 24"><rect x="5" y="4" width="12" height="16" rx="2" stroke="currentColor" stroke-width="1.8"/><path d="m11 9 1.4 2 2.4.4-1.8 1.7.4 2.5-2.4-1.3-2.4 1.3.4-2.5-1.8-1.7 2.4-.4z" stroke="currentColor" stroke-width="1.2" stroke-linejoin="round"/><path d="M9 6.6h.1M13 17.5h.1" stroke="currentColor" stroke-width="1.8" stroke-linecap="round"/></symbol><symbol id="icon-copy" viewBox="0 0 24 24"><rect x="8" y="8" width="11" height="11" rx="2" stroke="currentColor" stroke-width="1.8"/><path d="M5 15V6a2 2 0 0 1 2-2h9" stroke="currentColor" stroke-width="1.8" stroke-linecap="round"/></symbol><symbol id="icon-crown" viewBox="0 0 24 24"><path d="m4 8 4 4 4-6 4 6 4-4-2 10H6z" stroke="currentColor" stroke-width="1.8" stroke-linejoin="round"/></symbol><symbol id="icon-foosball" viewBox="0 0 24 24"><rect x="3" y="5" width="18" height="14" rx="3" stroke="currentColor" stroke-width="1.8"/><path d="M8 3v18m8-18v18" stroke="currentColor" stroke-width="1.8" stroke-linecap="round"/><circle cx="12" cy="12" r="1.8" stroke="currentColor" stroke-width="1.8"/></symbol><symbol id="icon-freethrow-frenzy" viewBox="0 0 24 24"><circle cx="12" cy="11" r="5" stroke="currentColor" stroke-width="1.8"/><path d="M7 11h10M12 6v10M8.5 7.5c2 1.2 5 1.2 7 0M8.5 14.5c2-1.2 5-1.2 7 0" stroke="currentColor" stroke-width="1.8" stroke-linecap="round"/><path d="M4 18h16" stroke="currentColor" stroke-width="1.8" stroke-linecap="round"/></symbol><symbol id="icon-goalie-gauntlet" viewBox="0 0 24 24"><path d="M8 6h8v4h-2v8H10v-8H8z" stroke="currentColor" stroke-width="1.8" stroke-linejoin="round"/><path d="M8 11 4.5 13v3L8 14m8-3 3.5 2v3L16 14" stroke="currentColor" stroke-width="1.8" stroke-linecap="round" stroke-linejoin="round"/><path d="M10.5 6a1.5 1.5 0 1 1 3 0" stroke="currentColor" stroke-width="1.8"/></symbol><symbol id="icon-homerun-derby" viewBox="0 0 24 24"><circle cx="7" cy="8" r="2.5" stroke="currentColor" stroke-width="1.8"/><path d="M8.5 7.2c1 1.2 2.8 1.2 3.8 0M8.5 8.8c1-1.2 2.8-1.2 3.8 0" stroke="currentColor" stroke-width="1.8" stroke-linecap="round"/><path d="M12 16l7-7" stroke="currentColor" stroke-width="1.8" stroke-linecap="round"/><rect x="11" y="15" width="8" height="3" rx="1.5" transform="rotate(-45 11 15)" stroke="currentColor" stroke-width="1.8"/></symbol><symbol id="icon-info" viewBox="0 0 24 24"><circle cx="12" cy="12" r="8" stroke="currentColor" stroke-width="1.8"/><path d="M12 10.5v5M12 8h.1" stroke="currentColor" stroke-width="1.8" stroke-linecap="round"/></symbol><symbol id="icon-minigolf" viewBox="0 0 24 24"><path d="M4 19h16" stroke="currentColor" stroke-width="1.8" stroke-linecap="round"/><path d="M8 19V5l7 2.5-7 2.5" stroke="currentColor" stroke-width="1.8" stroke-linecap="round" stroke-linejoin="round"/><circle cx="16.5" cy="18" r="1.5" stroke="currentColor" stroke-width="1.8"/></symbol><symbol id="icon-moon" viewBox="0 0 24 24"><path d="M16 4.5a7.5 7.5 0 1 0 3.5 13.9A8.2 8.2 0 0 1 16 4.5z" stroke="currentColor" stroke-width="1.8" stroke-linejoin="round"/></symbol><symbol id="icon-party" viewBox="0 0 24 24"><circle cx="8" cy="9" r="2.5" stroke="currentColor" stroke-width="1.8"/><circle cx="16" cy="10" r="2.5" stroke="currentColor" stroke-width="1.8"/><path d="M4.5 18c.6-2.3 2.1-3.5 3.5-3.5h2c1.4 0 2.9 1.2 3.5 3.5M12.5 18c.5-1.9 1.8-3 3.1-3h1.8c1.3 0 2.6 1.1 3.1 3" stroke="currentColor" stroke-width="1.8" stroke-linecap="round"/></symbol><symbol id="icon-pause" viewBox="0 0 24 24"><rect x="7" y="5" width="3.5" height="14" rx="1" stroke="currentColor" stroke-width="1.8"/><rect x="13.5" y="5" width="3.5" height="14" rx="1" stroke="currentColor" stroke-width="1.8"/></symbol><symbol id="icon-penalty-kick-showdown" viewBox="0 0 24 24"><path d="M4 19V8h16v11M4 12h16M8 8V5h8v3" stroke="currentColor" stroke-width="1.8" stroke-linecap="round" stroke-linejoin="round"/><circle cx="12" cy="15.2" r="2.2" stroke="currentColor" stroke-width="1.8"/></symbol><symbol id="icon-pixelpuck" viewBox="0 0 24 24"><circle cx="8" cy="8" r="2.5" stroke="currentColor" stroke-width="1.8"/><path d="M3.5 14.5h17" stroke="currentColor" stroke-width="1.8" stroke-linecap="round"/><circle cx="16" cy="16" r="4" stroke="currentColor" stroke-width="1.8"/></symbol><symbol id="icon-play" viewBox="0 0 24 24"><path d="M8 6.5v11l9-5.5z" stroke="currentColor" stroke-width="1.8" stroke-linejoin="round"/></symbol><symbol id="icon-pool" viewBox="0 0 24 24"><circle cx="12" cy="12" r="6" stroke="currentColor" stroke-width="1.8"/><path d="M8 8.5h8M8 12h8M8 15.5h8" stroke="currentColor" stroke-width="1.8" stroke-linecap="round"/><circle cx="18.5" cy="7" r="2.2" stroke="currentColor" stroke-width="1.8"/></symbol><symbol id="icon-settings" viewBox="0 0 24 24"><path d="m12 3 1.3 1.8 2.3.3.4 2.2 2 1.1-.6 2.2 1.5 1.7-1.5 1.7.6 2.2-2 1.1-.4 2.2-2.3.3L12 21l-1.3-1.8-2.3-.3-.4-2.2-2-1.1.6-2.2L4 12l1.5-1.7-.6-2.2 2-1.1.4-2.2 2.3-.3z" stroke="currentColor" stroke-width="1.6" stroke-linejoin="round"/><circle cx="12" cy="12" r="3" stroke="currentColor" stroke-width="1.8"/></symbol><symbol id="icon-share" viewBox="0 0 24 24"><circle cx="6" cy="12" r="2.2" stroke="currentColor" stroke-width="1.8"/><circle cx="18" cy="6" r="2.2" stroke="currentColor" stroke-width="1.8"/><circle cx="18" cy="18" r="2.2" stroke="currentColor" stroke-width="1.8"/><path d="M8 11l7.5-4M8 13l7.5 4" stroke="currentColor" stroke-width="1.8" stroke-linecap="round"/></symbol><symbol id="icon-sound" viewBox="0 0 24 24"><path d="M5 10h3l4-3v10l-4-3H5z" stroke="currentColor" stroke-width="1.8" stroke-linejoin="round"/><path d="M15 9.5a3.5 3.5 0 0 1 0 5M17.5 7a7 7 0 0 1 0 10" stroke="currentColor" stroke-width="1.8" stroke-linecap="round"/></symbol><symbol id="icon-sun" viewBox="0 0 24 24"><circle cx="12" cy="12" r="3.5" stroke="currentColor" stroke-width="1.8"/><path d="M12 3.5v2.2M12 18.3v2.2M3.5 12h2.2M18.3 12h2.2M5.9 5.9l1.6 1.6M16.5 16.5l1.6 1.6M5.9 18.1l1.6-1.6M16.5 7.5l1.6-1.6" stroke="currentColor" stroke-width="1.8" stroke-linecap="round"/></symbol><symbol id="icon-table-tennis" viewBox="0 0 24 24"><path d="M7 6c3.5-1.2 7.2.6 8.4 4.1L12 11.3 8.8 8z" stroke="currentColor" stroke-width="1.8" stroke-linejoin="round"/><path d="M11.5 10.8 16 15.3" stroke="currentColor" stroke-width="1.8" stroke-linecap="round"/><rect x="15.4" y="14.8" width="6" height="2.8" rx="1.4" transform="rotate(45 15.4 14.8)" stroke="currentColor" stroke-width="1.8"/><circle cx="6" cy="16" r="2" stroke="currentColor" stroke-width="1.8"/></symbol><symbol id="icon-throw-darts" viewBox="0 0 24 24"><circle cx="12" cy="12" r="7" stroke="currentColor" stroke-width="1.8"/><circle cx="12" cy="12" r="3" stroke="currentColor" stroke-width="1.8"/><path d="M16.5 7.5 22 2m0 0-1.8 5.2M22 2l-5.2 1.8" stroke="currentColor" stroke-width="1.8" stroke-linecap="round" stroke-linejoin="round"/></symbol><symbol id="icon-trophy" viewBox="0 0 24 24"><path d="M8 4h8v3a4 4 0 0 1-8 0z" stroke="currentColor" stroke-width="1.8"/><path d="M8 6H5a2 2 0 0 0 2 3M16 6h3a2 2 0 0 1-2 3" stroke="currentColor" stroke-width="1.8" stroke-linecap="round"/><path d="M12 11v4m-3 4h6" stroke="currentColor" stroke-width="1.8" stroke-linecap="round"/></symbol></svg>
