<?xml version="1.0" encoding="UTF-8"?>
<svg xmlns="http://www.w3.org/2000/svg" width="336" height="468" viewBox="0 0 336 468">
  <defs>
    <filter id="shadow" x="-20%" y="-20%" width="140%" height="140%">
      <feDropShadow dx="0" dy="4" stdDeviation="6" flood-color="#000000" flood-opacity="0.25"/>
    </filter>
  </defs>
  <rect x="16" y="16" width="304" height="436" rx="26" fill="#ffffff" stroke="#cbd5e1" stroke-width="3" filter="url(#shadow)"/>
  <text x="34" y="54" font-size="36" font-family="'Trebuchet MS', Arial, sans-serif" font-weight="700" fill="#0f172a">2</text>
  <g transform="translate(44 66) scale(0.24)"><path d="M 50 14 C 33 30 24 40 24 51 C 24 66 35 76 50 76 C 65 76 76 66 76 51 C 76 40 67 30 50 14 Z M 45 72 L 55 72 L 63 90 L 37 90 Z" fill="#0f172a"/></g>
  <g transform="rotate(180 168 234)">
    <text x="34" y="54" font-size="36" font-family="'Trebuchet MS', Arial, sans-serif" font-weight="700" fill="#0f172a">2</text>
  </g>
  <g transform="translate(292 402) rotate(180) scale(0.24)"><path d="M 50 14 C 33 30 24 40 24 51 C 24 66 35 76 50 76 C 65 76 76 66 76 51 C 76 40 67 30 50 14 Z M 45 72 L 55 72 L 63 90 L 37 90 Z" fill="#0f172a"/></g>
  <g transform="translate(168 118) rotate(0) scale(0.35)"><path d="M 50 14 C 33 30 24 40 24 51 C 24 66 35 76 50 76 C 65 76 76 66 76 51 C 76 40 67 30 50 14 Z M 45 72 L 55 72 L 63 90 L 37 90 Z" fill="#0f172a"/></g>
<g transform="translate(168 350) rotate(180) scale(0.35)"><path d="M 50 14 C 33 30 24 40 24 51 C 24 66 35 76 50 76 C 65 76 76 66 76 51 C 76 40 67 30 50 14 Z M 45 72 L 55 72 L 63 90 L 37 90 Z" fill="#0f172a"/></g>
</svg>