<?xml version="1.0" encoding="UTF-8"?>
<svg xmlns="http://www.w3.org/2000/svg" width="336" height="468" viewBox="0 0 336 468">
  <defs>
    <filter id="shadow" x="-20%" y="-20%" width="140%" height="140%">
      <feDropShadow dx="0" dy="4" stdDeviation="6" flood-color="#000000" flood-opacity="0.25"/>
    </filter>
  </defs>
  <rect x="16" y="16" width="304" height="436" rx="26" fill="#ffffff" stroke="#cbd5e1" stroke-width="3" filter="url(#shadow)"/>
  <text x="34" y="54" font-size="36" font-family="'Trebuchet MS', Arial, sans-serif" font-weight="700" fill="#b91c1c">3</text>
  <g transform="translate(44 66) scale(0.24)"><path d="M 50 82 L 17 48 C 6 36 8 19 20 12 C 31 6 42 12 50 22 C 58 12 69 6 80 12 C 92 19 94 36 83 48 Z" fill="#b91c1c"/></g>
  <g transform="rotate(180 168 234)">
    <text x="34" y="54" font-size="36" font-family="'Trebuchet MS', Arial, sans-serif" font-weight="700" fill="#b91c1c">3</text>
  </g>
  <g transform="translate(292 402) rotate(180) scale(0.24)"><path d="M 50 82 L 17 48 C 6 36 8 19 20 12 C 31 6 42 12 50 22 C 58 12 69 6 80 12 C 92 19 94 36 83 48 Z" fill="#b91c1c"/></g>
  <g transform="translate(168 118) rotate(0) scale(0.35)"><path d="M 50 82 L 17 48 C 6 36 8 19 20 12 C 31 6 42 12 50 22 C 58 12 69 6 80 12 C 92 19 94 36 83 48 Z" fill="#b91c1c"/></g>
<g transform="translate(168 234) rotate(0) scale(0.35)"><path d="M 50 82 L 17 48 C 6 36 8 19 20 12 C 31 6 42 12 50 22 C 58 12 69 6 80 12 C 92 19 94 36 83 48 Z" fill="#b91c1c"/></g>
<g transform="translate(168 350) rotate(180) scale(0.35)"><path d="M 50 82 L 17 48 C 6 36 8 19 20 12 C 31 6 42 12 50 22 C 58 12 69 6 80 12 C 92 19 94 36 83 48 Z" fill="#b91c1c"/></g>
</svg>