<?xml version="1.0" encoding="UTF-8"?>
<svg xmlns="http://www.w3.org/2000/svg" width="336" height="468" viewBox="0 0 336 468">
  <defs>
    <filter id="shadow" x="-20%" y="-20%" width="140%" height="140%">
      <feDropShadow dx="0" dy="4" stdDeviation="6" flood-color="#000000" flood-opacity="0.25"/>
    </filter>
  </defs>
  <rect x="16" y="16" width="304" height="436" rx="26" fill="#ffffff" stroke="#cbd5e1" stroke-width="3" filter="url(#shadow)"/>
  <text x="34" y="54" font-size="36" font-family="'Trebuchet MS', Arial, sans-serif" font-weight="700" fill="#0f172a">6</text>
  <g transform="translate(44 66) scale(0.24)"><path d="M 50 18 C 41 6 22 12 22 29 C 22 40 30 49 40 49 C 27 49 17 58 17 71 C 17 85 28 94 42 94 C 50 94 58 90 62 81 C 66 90 74 94 82 94 C 96 94 107 85 107 71 C 107 58 97 49 84 49 C 94 49 102 40 102 29 C 102 12 83 6 74 18 C 68 26 64 32 62 39 C 60 32 56 26 50 18 Z M 56 86 L 68 86 L 78 106 L 46 106 Z" fill="#0f172a"/></g>
  <g transform="rotate(180 168 234)">
    <text x="34" y="54" font-size="36" font-family="'Trebuchet MS', Arial, sans-serif" font-weight="700" fill="#0f172a">6</text>
  </g>
  <g transform="translate(292 402) rotate(180) scale(0.24)"><path d="M 50 18 C 41 6 22 12 22 29 C 22 40 30 49 40 49 C 27 49 17 58 17 71 C 17 85 28 94 42 94 C 50 94 58 90 62 81 C 66 90 74 94 82 94 C 96 94 107 85 107 71 C 107 58 97 49 84 49 C 94 49 102 40 102 29 C 102 12 83 6 74 18 C 68 26 64 32 62 39 C 60 32 56 26 50 18 Z M 56 86 L 68 86 L 78 106 L 46 106 Z" fill="#0f172a"/></g>
  <g transform="translate(104 118) rotate(0) scale(0.35)"><path d="M 50 18 C 41 6 22 12 22 29 C 22 40 30 49 40 49 C 27 49 17 58 17 71 C 17 85 28 94 42 94 C 50 94 58 90 62 81 C 66 90 74 94 82 94 C 96 94 107 85 107 71 C 107 58 97 49 84 49 C 94 49 102 40 102 29 C 102 12 83 6 74 18 C 68 26 64 32 62 39 C 60 32 56 26 50 18 Z M 56 86 L 68 86 L 78 106 L 46 106 Z" fill="#0f172a"/></g>
<g transform="translate(232 118) rotate(0) scale(0.35)"><path d="M 50 18 C 41 6 22 12 22 29 C 22 40 30 49 40 49 C 27 49 17 58 17 71 C 17 85 28 94 42 94 C 50 94 58 90 62 81 C 66 90 74 94 82 94 C 96 94 107 85 107 71 C 107 58 97 49 84 49 C 94 49 102 40 102 29 C 102 12 83 6 74 18 C 68 26 64 32 62 39 C 60 32 56 26 50 18 Z M 56 86 L 68 86 L 78 106 L 46 106 Z" fill="#0f172a"/></g>
<g transform="translate(104 234) rotate(0) scale(0.35)"><path d="M 50 18 C 41 6 22 12 22 29 C 22 40 30 49 40 49 C 27 49 17 58 17 71 C 17 85 28 94 42 94 C 50 94 58 90 62 81 C 66 90 74 94 82 94 C 96 94 107 85 107 71 C 107 58 97 49 84 49 C 94 49 102 40 102 29 C 102 12 83 6 74 18 C 68 26 64 32 62 39 C 60 32 56 26 50 18 Z M 56 86 L 68 86 L 78 106 L 46 106 Z" fill="#0f172a"/></g>
<g transform="translate(232 234) rotate(0) scale(0.35)"><path d="M 50 18 C 41 6 22 12 22 29 C 22 40 30 49 40 49 C 27 49 17 58 17 71 C 17 85 28 94 42 94 C 50 94 58 90 62 81 C 66 90 74 94 82 94 C 96 94 107 85 107 71 C 107 58 97 49 84 49 C 94 49 102 40 102 29 C 102 12 83 6 74 18 C 68 26 64 32 62 39 C 60 32 56 26 50 18 Z M 56 86 L 68 86 L 78 106 L 46 106 Z" fill="#0f172a"/></g>
<g transform="translate(104 350) rotate(180) scale(0.35)"><path d="M 50 18 C 41 6 22 12 22 29 C 22 40 30 49 40 49 C 27 49 17 58 17 71 C 17 85 28 94 42 94 C 50 94 58 90 62 81 C 66 90 74 94 82 94 C 96 94 107 85 107 71 C 107 58 97 49 84 49 C 94 49 102 40 102 29 C 102 12 83 6 74 18 C 68 26 64 32 62 39 C 60 32 56 26 50 18 Z M 56 86 L 68 86 L 78 106 L 46 106 Z" fill="#0f172a"/></g>
<g transform="translate(232 350) rotate(180) scale(0.35)"><path d="M 50 18 C 41 6 22 12 22 29 C 22 40 30 49 40 49 C 27 49 17 58 17 71 C 17 85 28 94 42 94 C 50 94 58 90 62 81 C 66 90 74 94 82 94 C 96 94 107 85 107 71 C 107 58 97 49 84 49 C 94 49 102 40 102 29 C 102 12 83 6 74 18 C 68 26 64 32 62 39 C 60 32 56 26 50 18 Z M 56 86 L 68 86 L 78 106 L 46 106 Z" fill="#0f172a"/></g>
</svg>